<?xml version="1.0" ?><svg width="32px" height="32px" viewBox="0 0 32 32" xmlns="http://www.w3.org/2000/svg"><title/><g data-name="Layer 17" id="Layer_17"><path d="M25,6H22a4.09,4.09,0,0,0-4.08-4H14.09A4.09,4.09,0,0,0,10,6H7A1,1,0,0,0,6,7V29a1,1,0,0,0,1,1H25a1,1,0,0,0,1-1V7A1,1,0,0,0,25,6ZM14.09,4h3.82A2.1,2.1,0,0,1,20,6H12A2.1,2.1,0,0,1,14.09,4ZM24,28H8V8H24Z"/><path d="M14,13h1v1a1,1,0,0,0,2,0V13h1a1,1,0,0,0,0-2H17V10a1,1,0,0,0-2,0v1H14a1,1,0,0,0,0,2Z"/><path d="M22,24H10a1,1,0,0,0,0,2H22a1,1,0,0,0,0-2Z"/><path d="M22,21H10a1,1,0,0,0,0,2H22a1,1,0,0,0,0-2Z"/><path d="M9,19a1,1,0,0,0,1,1H22a1,1,0,0,0,0-2H10A1,1,0,0,0,9,19Z"/></g></svg>